<?xml version="1.0" standalone="no"?>
<!DOCTYPE svg PUBLIC "-//W3C//DTD SVG 20010904//EN"
 "http://www.w3.org/TR/2001/REC-SVG-20010904/DTD/svg10.dtd">
<svg version="1.0" xmlns="http://www.w3.org/2000/svg"
 width="150.167" height="200.912" viewBox="0 0 168.000000 171.000000"
 preserveAspectRatio="xMidYMid meet">

<g transform="translate(0.000000,171.000000) scale(0.100000,-0.100000)"
fill="#17ac9d" stroke="none">
<path d="M1210 1149 c-18 -32 -40 -149 -40 -211 l0 -58 65 0 65 0 0 38 c0 56
-18 162 -36 210 -17 46 -37 54 -54 21z"/>
<path d="M1085 1043 c-4 -10 -9 -51 -12 -90 l-6 -73 32 0 33 0 -6 53 c-13 102
-18 127 -26 127 -4 0 -11 -8 -15 -17z"/>
<path d="M1011 970 c-1 -8 -4 -32 -7 -52 -5 -31 -4 -38 10 -38 10 0 16 8 15
23 -2 30 -16 86 -18 67z"/>
<path d="M787 913 c-4 -3 -7 -60 -7 -125 0 -98 3 -118 15 -118 13 0 15 21 15
125 0 114 -5 137 -23 118z"/>
<path d="M855 911 c-3 -5 -1 -12 5 -16 12 -7 30 2 30 16 0 12 -27 12 -35 0z"/>
<path d="M1337 913 c-4 -3 -7 -23 -7 -43 0 -35 -1 -36 -33 -32 -70 8 -117 -92
-67 -146 16 -17 31 -21 75 -20 l55 2 0 123 c0 112 -5 135 -23 116z m-18 -97
c7 -8 11 -37 9 -68 -3 -50 -5 -53 -31 -56 -23 -3 -30 2 -42 32 -17 41 -11 81
14 96 23 13 37 12 50 -4z"/>
<path d="M943 853 c-12 -18 -18 -33 -13 -33 5 0 10 -33 12 -72 3 -76 14 -90
56 -73 15 6 14 8 -5 16 -20 7 -23 15 -23 68 0 52 3 60 23 66 l22 8 -22 4 c-13
3 -23 13 -25 27 -3 22 -4 21 -25 -11z"/>
<path d="M145 826 c-11 -8 -16 -19 -12 -30 9 -24 24 -20 31 10 9 33 49 31 54
-3 3 -18 -5 -26 -38 -39 -48 -19 -66 -45 -50 -74 12 -22 64 -28 76 -9 5 8 9 7
14 -1 4 -7 15 -10 24 -7 23 9 23 129 0 151 -19 20 -74 21 -99 2z m73 -98 c-2
-28 -7 -33 -28 -33 -31 0 -40 33 -14 52 31 23 46 16 42 -19z"/>
<path d="M300 755 c0 -69 3 -85 15 -85 12 0 15 14 15 65 0 60 2 66 25 77 40
18 55 -3 55 -78 0 -50 3 -64 15 -64 12 0 15 14 15 65 0 60 2 66 25 77 40 18
55 -3 55 -78 0 -50 3 -64 15 -64 12 0 15 14 15 66 0 36 -5 74 -10 85 -13 23
-47 25 -77 4 -18 -13 -22 -13 -33 0 -16 19 -50 19 -78 -1 -20 -14 -22 -14 -22
0 0 9 -7 16 -15 16 -12 0 -15 -16 -15 -85z"/>
<path d="M590 720 c0 -100 3 -120 15 -120 10 0 15 11 15 35 0 34 1 35 40 35
49 0 76 24 86 75 12 68 -48 116 -102 81 -21 -15 -24 -15 -24 -1 0 8 -7 15 -15
15 -12 0 -15 -20 -15 -120z m104 84 c18 -18 21 -76 6 -105 -6 -11 -21 -19 -35
-19 -29 0 -45 26 -45 71 0 34 24 69 46 69 7 0 20 -7 28 -16z"/>
<path d="M854 827 c-3 -8 -4 -45 -2 -83 2 -56 6 -69 21 -72 15 -3 17 6 17 82
0 71 -3 86 -15 86 -9 0 -18 -6 -21 -13z"/>
<path d="M1042 764 c3 -90 17 -106 68 -87 16 6 30 7 30 2 0 -5 9 -9 20 -9 20
0 21 5 18 83 -2 65 -6 82 -18 82 -12 0 -16 -15 -18 -67 -3 -62 -5 -68 -27 -74
-38 -9 -45 3 -45 77 0 55 -3 69 -15 69 -13 0 -15 -13 -13 -76z"/>
<path d="M1425 815 c-54 -53 -16 -145 60 -145 49 0 85 36 85 85 0 25 -8 44
-25 60 -16 17 -35 25 -60 25 -25 0 -44 -8 -60 -25z m87 -2 c21 -19 25 -102 6
-121 -33 -33 -80 6 -82 66 -1 64 36 91 76 55z"/>
</g>
</svg>
