<svg xmlns="http://www.w3.org/2000/svg" width="16.2" height="18"
     viewBox="0 0 16.2 18">
    <defs>
        <style>.a{fill:#007dc3;}.b{fill:#007dc3;}.c{clip-path:url(#a);}</style>
        <clipPath id="a">
            <path class="a"
                  d="M8.1,18a3.461,3.461,0,0,1-3.6-3.293V14.4H1.474A1.472,1.472,0,0,1,.432,11.887l1.62-1.623V6.054a6.06,6.06,0,0,1,6.857-6,6.173,6.173,0,0,1,5.239,6.189v4.022l1.621,1.622A1.474,1.474,0,0,1,14.726,14.4H11.7v.307A3.461,3.461,0,0,1,8.1,18ZM6.3,14.4v.307A1.691,1.691,0,0,0,8.1,16.2a1.691,1.691,0,0,0,1.8-1.493V14.4H6.3Z"
                  transform="translate(0)"/>
        </clipPath>
    </defs>
    <path class="b"
          d="M8.1,18a3.461,3.461,0,0,1-3.6-3.293V14.4H1.474A1.472,1.472,0,0,1,.432,11.887l1.62-1.623V6.054a6.06,6.06,0,0,1,6.857-6,6.173,6.173,0,0,1,5.239,6.189v4.022l1.621,1.622A1.474,1.474,0,0,1,14.726,14.4H11.7v.307A3.461,3.461,0,0,1,8.1,18ZM6.3,14.4v.307A1.691,1.691,0,0,0,8.1,16.2a1.691,1.691,0,0,0,1.8-1.493V14.4H6.3Z"/>
</svg>