<svg xmlns="http://www.w3.org/2000/svg" width="18.945" height="15.183"
     viewBox="0 0 18.945 15.183">
    <path id="prefix__Path_862"
          d="M98.031 17.045a2.857 2.857 0 0 0-.082-.653c0-.01-.008-.021-.01-.031a2.816 2.816 0 0 0-.228-.6c0-.007 0-.014-.009-.022A2.833 2.833 0 0 0 95.19 14.2H81.93a2.818 2.818 0 0 0-2.586 1.69v.011a3.577 3.577 0 0 0-.252 1.169v9.472a2.845 2.845 0 0 0 2.842 2.842h13.261a2.844 2.844 0 0 0 2.836-2.845v-9.471-.024zM81.936 16.1H95.19a.9.9 0 0 1 .55.191.657.657 0 0 1 .217.244.618.618 0 0 1 .016.33.8.8 0 0 1-.287.525l-.036.026-.111.082-.148.11-.18.135L95 17.9l-.237.177-.261.194-.28.209-.3.223-.312.232-.323.241-.33.245-.333.249-.334.249-.332.247-.327.243-.318.238-.306.227-.291.217-.272.2-.25.187-.226.168-.2.148-.166.123-.131.1-.094.07-.063.046a1.2 1.2 0 0 1-1.546 0l-.023-.016-.063-.048-.1-.077-.139-.1-.172-.128-.2-.151-.228-.171-.252-.188-.273-.2-.29-.216-.3-.226-.314-.234-.324-.242-.328-.244-.331-.245-.329-.245-.325-.242-.316-.236-.307-.228-.294-.219-.276-.206-.257-.191-.237-.18-.207-.155-.179-.133-.147-.109-.111-.083a.783.783 0 0 1-.177-.168.9.9 0 0 1-.148-.369.566.566 0 0 1 .027-.336.39.39 0 0 1 .021-.04.685.685 0 0 1 .1-.13.937.937 0 0 1 .667-.277zm14.2 10.445a.947.947 0 0 1-.943.949H81.928a.948.948 0 0 1-.947-.947v-7.111l5.681 4.228a3.1 3.1 0 0 0 3.791-.014l5.684-4.236z"
          data-name="Path 862" transform="translate(-79.086 -14.203)"
          style="fill:#0b34a5"/>
</svg>
