<svg xmlns="http://www.w3.org/2000/svg" width="15.002" height="14.999"
     viewBox="0 0 15.002 14.999">
    <path id="prefix__Exclusion_4"
          d="M13219.5 2433h-10a2.5 2.5 0 0 1-2.5-2.5v-10a2.5 2.5 0 0 1 2.5-2.5h10a2.5 2.5 0 0 1 2.5 2.5v10a2.5 2.5 0 0 1-2.5 2.5zm-10-13.333a.834.834 0 0 0-.833.833v10a.834.834 0 0 0 .833.833h10a.835.835 0 0 0 .836-.833v-10a.835.835 0 0 0-.836-.833zm7.373 9.039a.839.839 0 0 1-.591-.242l-1.782-1.785-1.785 1.785a.839.839 0 0 1-.59.242.833.833 0 0 1-.588-1.424l1.782-1.785-1.782-1.782a.834.834 0 0 1 1.178-1.181l1.782 1.785 1.785-1.785a.839.839 0 0 1 .591-.242.834.834 0 0 1 .833.833.809.809 0 0 1-.246.591l-1.781 1.782 1.781 1.785a.833.833 0 0 1-.587 1.424z"
          data-name="Exclusion 4" transform="translate(-13206.999 -2418.001)"
          style="fill:#fff;opacity:.604"/>
</svg>
