<svg xmlns="http://www.w3.org/2000/svg" id="prefix__log-out" width="15"
     height="14" viewBox="0 0 15 14">
    <defs>
        <clipPath id="prefix__clip-path">
            <path id="prefix___Icon_小olor"
                  d="M.882 14A.881.881 0 0 1 0 13.125V.875A.881.881 0 0 1 .882 0h1.765a.881.881 0 0 1 .882.875.881.881 0 0 1-.882.875h-.882v10.5h.882a.875.875 0 1 1 0 1.75zm10.059-2.8a.87.87 0 0 1-.177-1.224l1.59-2.1h-7.06a.875.875 0 1 1 0-1.75h7.058a.623.623 0 0 1 .076.016L10.913 4a.871.871 0 0 1 .214-1.219.886.886 0 0 1 1.229.219l2.484 3.5a.869.869 0 0 1-.016 1.028l-2.648 3.5a.887.887 0 0 1-1.235.175z"
                  class="prefix__cls-1" data-name=" Icon 小olor"/>
        </clipPath>
        <style>
            .prefix__cls-1{fill:#97a3b4}
        </style>
    </defs>
    <path id="prefix___Icon_小olor-2"
          d="M.882 14A.882.882 0 0 1 0 13.125V.875A.881.881 0 0 1 .882 0H6.4a.881.881 0 0 1 .882.875.881.881 0 0 1-.882.875H1.765v10.5H6.4a.875.875 0 1 1 0 1.75zm10.059-2.8a.868.868 0 0 1-.176-1.224l1.589-2.1h-7.06a.875.875 0 1 1 0-1.75h7.059a.772.772 0 0 1 .076.016L10.913 4a.872.872 0 0 1 .215-1.22.885.885 0 0 1 1.228.22l2.483 3.5a.868.868 0 0 1-.015 1.028l-2.648 3.5a.886.886 0 0 1-1.235.175z"
          class="prefix__cls-1" data-name=" Icon 小olor"/>
</svg>
