<svg xmlns="http://www.w3.org/2000/svg" width="18.945" height="22.169"
     viewBox="0 0 18.945 22.169">
    <path id="prefix__Path_863"
          d="M76.724 10.448a2.85 2.85 0 0 0-.839-2.029L69.3 1.828a2.875 2.875 0 0 0-4.058 0l-6.59 6.59a2.851 2.851 0 0 0-.84 2.029v9.87a2.845 2.845 0 0 0 2.842 2.842h13.262a2.845 2.845 0 0 0 2.836-2.845l-.028-9.866zM59.987 9.76l6.59-6.591a.979.979 0 0 1 1.379 0l6.59 6.591a.976.976 0 0 1 0 1.377l-1.223 1.223v-1.219a1.521 1.521 0 0 0-1.523-1.52h-9.134a1.521 1.521 0 0 0-1.52 1.519v1.16l-1.159-1.158a.974.974 0 0 1 0-1.377zm11.442 4.495l-3.473 3.473a1 1 0 0 1-1.378 0L63.04 14.19v-2.674h8.388zm2.482 7.011H60.649a.948.948 0 0 1-.947-.947V13.53l5.536 5.537a2.868 2.868 0 0 0 4.058 0l5.561-5.567v6.813a.949.949 0 0 1-.947.953z"
          data-name="Path 863" transform="translate(-57.807 -.991)"
          style="fill:#fff"/>
</svg>
