<svg xmlns="http://www.w3.org/2000/svg" width="18" height="18"
     viewBox="0 0 18 18">
    <defs>
        <style>
            .a{fill:#6d6e70;}.b{fill:none;}.c{opacity:0.597;clip-path:url(#a);}.d{clip-path:url(#b);}
        </style>
        <clipPath id="a">
            <rect class="b" width="18" height="18"/>
        </clipPath>
        <clipPath id="b">
            <path class="a"
                  d="M17,18a.994.994,0,0,1-.707-.293l-3.4-3.395A7.91,7.91,0,0,1,8,16a8,8,0,1,1,8-8,7.909,7.909,0,0,1-1.688,4.9l3.395,3.4A1,1,0,0,1,17,18ZM8,2a6,6,0,1,0,6,6A6.007,6.007,0,0,0,8,2Z"
                  transform="translate(3 3)"/>
        </clipPath>
    </defs>
    <g class="c">
        <path class="a"
              d="M17,18a.994.994,0,0,1-.707-.293l-3.4-3.395A7.91,7.91,0,0,1,8,16a8,8,0,1,1,8-8,7.909,7.909,0,0,1-1.688,4.9l3.395,3.4A1,1,0,0,1,17,18ZM8,2a6,6,0,1,0,6,6A6.007,6.007,0,0,0,8,2Z"
              transform="translate(0)"/>
    </g>
</svg>