<svg xmlns="http://www.w3.org/2000/svg" width="20.924" height="20.924"
     viewBox="0 0 20.924 20.924">
    <defs>
        <clipPath id="prefix__clip-path">
            <path d="M0 0H20.924V20.924H0z" style="fill:none"/>
        </clipPath>
        <clipPath id="prefix__clip-path-2">
            <path id="prefix___Icon_小olor"
                  d="M15.693 20.924H5.231a3.142 3.142 0 0 1-3.139-3.138V6.278H1.046a1.047 1.047 0 0 1 0-2.093h5.232V2.436A2.533 2.533 0 0 1 8.892 0h3.139a2.533 2.533 0 0 1 2.616 2.436v1.748h5.231a1.047 1.047 0 0 1 0 2.093h-1.046v11.509a3.142 3.142 0 0 1-3.139 3.138zM4.184 6.278v11.508a1.048 1.048 0 0 0 1.047 1.046h10.462a1.047 1.047 0 0 0 1.046-1.046V6.278zm4.708-4.186c-.3 0-.523.181-.523.344v1.748h4.183V2.436c0-.162-.223-.344-.523-.344zm4.708 13.6a1.047 1.047 0 0 1-1.046-1.046v-4.184a1.047 1.047 0 0 1 2.093 0v4.185a1.048 1.048 0 0 1-1.047 1.047zm-6.277 0a1.047 1.047 0 0 1-1.046-1.046v-4.184a1.046 1.046 0 1 1 2.092 0v4.185a1.047 1.047 0 0 1-1.045 1.047z"
                  class="prefix__cls-1" data-name=" Icon 小olor"/>
        </clipPath>
        <style>
            .prefix__cls-1{fill:#fff}
        </style>
    </defs>
    <g id="prefix__trash-2">
        <path id="prefix___Icon_小olor-2"
              d="M15.693 20.924H5.231a3.142 3.142 0 0 1-3.139-3.138V6.278H1.046a1.047 1.047 0 0 1 0-2.093h5.232V2.436A2.533 2.533 0 0 1 8.892 0h3.139a2.533 2.533 0 0 1 2.616 2.436v1.748h5.231a1.047 1.047 0 0 1 0 2.093h-1.046v11.509a3.142 3.142 0 0 1-3.139 3.138zM4.184 6.278v11.508a1.048 1.048 0 0 0 1.047 1.046h10.462a1.047 1.047 0 0 0 1.046-1.046V6.278zm4.708-4.186c-.3 0-.523.181-.523.344v1.748h4.183V2.436c0-.162-.223-.344-.523-.344zm4.708 13.6a1.047 1.047 0 0 1-1.046-1.046v-4.184a1.047 1.047 0 0 1 2.093 0v4.185a1.048 1.048 0 0 1-1.047 1.047zm-6.277 0a1.047 1.047 0 0 1-1.046-1.046v-4.184a1.046 1.046 0 1 1 2.092 0v4.185a1.047 1.047 0 0 1-1.045 1.047z"
              class="prefix__cls-1" data-name=" Icon 小olor"/>
    </g>
</svg>
