<svg xmlns="http://www.w3.org/2000/svg" width="49" height="46" viewBox="0 0 49 46">
    <defs>
        <clipPath id="clip-path">
            <path id="_Icon_Сolor" d="M1 18a1 1 0 0 1-1-1V1.857a1 1 0 0 1 .3-.713C.494.953 1.611 0 4.5 0a10.164 10.164 0 0 1 3.864.926 8.475 8.475 0 0 0 3.136.788 7.254 7.254 0 0 0 2.169-.286 1.759 1.759 0 0 1 .548-.087 1.806 1.806 0 0 1 1.051.34A1.769 1.769 0 0 1 16 3.106v8.643a1.753 1.753 0 0 1-.959 1.556A7.7 7.7 0 0 1 11.5 14a10.167 10.167 0 0 1-3.858-.923h-.014a8.456 8.456 0 0 0-3.128-.791A6.189 6.189 0 0 0 2 12.7V17a1 1 0 0 1-1 1zm3.5-7.714a10.164 10.164 0 0 1 3.865.926A8.475 8.475 0 0 0 11.5 12a6.156 6.156 0 0 0 2.5-.414V3.414a9.511 9.511 0 0 1-2.5.3 10.167 10.167 0 0 1-3.858-.923h-.014A8.456 8.456 0 0 0 4.5 2a6.176 6.176 0 0 0-2.5.416v8.168a9.544 9.544 0 0 1 2.5-.298z" class="cls-1" data-name="🎨 Icon Сolor"/>
        </clipPath>
        <style>
            .cls-1{fill:#fff}
        </style>
    </defs>
    <g id="Component_42_1" data-name="Component 42 – 1" transform="translate(0 -.5)">
        <g id="flag" transform="translate(17 14.5)">
            <path id="_Icon_Сolor-2" d="M1 18a1 1 0 0 1-1-1V1.857a1 1 0 0 1 .3-.713C.494.953 1.611 0 4.5 0a10.164 10.164 0 0 1 3.864.926 8.475 8.475 0 0 0 3.136.788 7.254 7.254 0 0 0 2.169-.286 1.759 1.759 0 0 1 .548-.087 1.806 1.806 0 0 1 1.051.34A1.769 1.769 0 0 1 16 3.106v8.643a1.753 1.753 0 0 1-.959 1.556A7.7 7.7 0 0 1 11.5 14a10.167 10.167 0 0 1-3.858-.923h-.014a8.456 8.456 0 0 0-3.128-.791A6.189 6.189 0 0 0 2 12.7V17a1 1 0 0 1-1 1zm3.5-7.714a10.164 10.164 0 0 1 3.865.926A8.475 8.475 0 0 0 11.5 12a6.156 6.156 0 0 0 2.5-.414V3.414a9.511 9.511 0 0 1-2.5.3 10.167 10.167 0 0 1-3.858-.923h-.014A8.456 8.456 0 0 0 4.5 2a6.176 6.176 0 0 0-2.5.416v8.168a9.544 9.544 0 0 1 2.5-.298z" class="cls-1" data-name="🎨 Icon Сolor"/>
        </g>
    </g>
</svg>
