<svg xmlns="http://www.w3.org/2000/svg" xmlns:xlink="http://www.w3.org/1999/xlink" width="49" height="46" viewBox="0 0 49 46"><defs><style>.a{fill:#fff;}.b{fill:rgba(255,255,255,0.2);opacity:0;}.c{clip-path:url(#a);}</style><clipPath id="a"><path class="a" d="M15,18H5a1,1,0,1,1,0-2H9V14H3a3,3,0,0,1-3-3V3A3,3,0,0,1,3,0H17a3,3,0,0,1,3,3v8a3,3,0,0,1-3,3H11v2h4a1,1,0,1,1,0,2ZM3,2A1,1,0,0,0,2,3v8a1,1,0,0,0,1,1H17a1,1,0,0,0,1-1V3a1,1,0,0,0-1-1Z" transform="translate(2 3)"/></clipPath></defs><rect class="b" width="49" height="46" rx="3"/><g transform="translate(14 14)"><path class="a" d="M15,18H5a1,1,0,1,1,0-2H9V14H3a3,3,0,0,1-3-3V3A3,3,0,0,1,3,0H17a3,3,0,0,1,3,3v8a3,3,0,0,1-3,3H11v2h4a1,1,0,1,1,0,2ZM3,2A1,1,0,0,0,2,3v8a1,1,0,0,0,1,1H17a1,1,0,0,0,1-1V3a1,1,0,0,0-1-1Z"/></g></svg>