<svg xmlns="http://www.w3.org/2000/svg" width="46.167" height="52.912" viewBox="0 0 46.167 52.912">
    <defs>
        <style>
            .cls-2{fill:#fff}
        </style>
    </defs>
    <g id="Group_691" data-name="Group 691" transform="translate(-166.756 -210.475)">
        <g id="Group_690" data-name="Group 690" transform="translate(173.363 210.475)">
            <path id="Path_15690" fill="#fff" d="M264.715 277.157v16.348l-14.423-12.715z" data-name="Path 15690" opacity="0.7" transform="translate(-232.018 -260.808)"/>
            <path id="Path_15691" d="M201.717 213.6a16.346 16.346 0 0 0-23.678 21.553c7.527-11.237 18.757-18.657 23.678-21.553" class="cls-2" data-name="Path 15691" transform="translate(-175.756 -210.475)"/>
            <path id="Path_15692" d="M234.713 230.413a53.992 53.992 0 0 0-17.95 26.551 16.348 16.348 0 0 0 17.95-26.551" class="cls-2" data-name="Path 15692" transform="translate(-206.709 -225.525)"/>
        </g>
        <g id="Group_689" data-name="Group 689" opacity="0.699" transform="translate(166.756 252.282)">
            <path id="Path_15693" d="M345.445 255.358a3.038 3.038 0 0 1 2.69 1.361v-1.236h2.675v8.728h-2.675v-1.236a3.086 3.086 0 0 1-2.706 1.361c-2.127 0-3.832-1.752-3.832-4.5s1.7-4.474 3.848-4.474m.782 2.331a1.943 1.943 0 0 0-1.908 2.143 1.971 1.971 0 0 0 1.908 2.174 2.175 2.175 0 0 0 0-4.317" class="cls-2" data-name="Path 15693" transform="translate(-341.597 -253.231)"/>
            <path id="Path_15694" d="M405.67 241.821h2.862l1.58 7.993 1.955-7.993h2.941l1.877 7.993 1.6-7.993h2.878L418.5 252.8h-3.238l-1.752-7.226-1.815 7.226h-3.238z" class="cls-2" data-name="Path 15694" transform="translate(-395.601 -241.821)"/>
            <path id="Path_15695" d="M511.059 250.862h-4.1l-.657 1.94h-2.8l3.973-10.98h3.1l3.973 10.98h-2.831zm-2.049-6.085l-1.345 4.02h2.706z" class="cls-2" data-name="Path 15695" transform="translate(-478.061 -241.821)"/>
            <path id="Path_15696" d="M569.988 241.821h3.035l2.127 4.6 2.112-4.6h3l-3.8 7.352v3.627h-2.675v-3.629z" class="cls-2" data-name="Path 15696" transform="translate(-534.098 -241.821)"/>
        </g>
    </g>
</svg>
