<svg xmlns="http://www.w3.org/2000/svg" xmlns:xlink="http://www.w3.org/1999/xlink" width="49" height="46" viewBox="0 0 49 46"><defs><style>.a{fill:#fff;}.b{fill:none;}.c{fill:rgba(255,255,255,0.2);opacity:0;}.d{clip-path:url(#a);}.e{clip-path:url(#b);}</style><clipPath id="a"><rect class="b" width="18" height="20"/></clipPath><clipPath id="b"><path class="a" d="M15,20H3a3,3,0,0,1-3-3V5A3,3,0,0,1,3,2H4V1A1,1,0,0,1,6,1V2h6V1a1,1,0,0,1,2,0V2h1a3,3,0,0,1,3,3V17A3,3,0,0,1,15,20ZM2,11v6a1,1,0,0,0,1,1H15a1,1,0,0,0,1-1V11ZM3,4A1,1,0,0,0,2,5V9H16V5a1,1,0,0,0-1-1H14V5a1,1,0,0,1-2,0V4H6V5A1,1,0,0,1,4,5V4ZM13,15H9a1,1,0,0,1,0-2h4a1,1,0,1,1,0,2ZM5,15a1,1,0,1,1,1-1A1,1,0,0,1,5,15Z" transform="translate(3 2)"/></clipPath></defs><rect class="c" width="49" height="46" rx="3"/><g class="d" transform="translate(15 13)"><path class="a" d="M15,20H3a3,3,0,0,1-3-3V5A3,3,0,0,1,3,2H4V1A1,1,0,0,1,6,1V2h6V1a1,1,0,0,1,2,0V2h1a3,3,0,0,1,3,3V17A3,3,0,0,1,15,20ZM2,11v6a1,1,0,0,0,1,1H15a1,1,0,0,0,1-1V11ZM3,4A1,1,0,0,0,2,5V9H16V5a1,1,0,0,0-1-1H14V5a1,1,0,0,1-2,0V4H6V5A1,1,0,0,1,4,5V4ZM13,15H9a1,1,0,0,1,0-2h4a1,1,0,1,1,0,2ZM5,15a1,1,0,1,1,1-1A1,1,0,0,1,5,15Z" transform="translate(0 0)"/></g></svg>