<svg xmlns="http://www.w3.org/2000/svg" width="49" height="46" viewBox="0 0 49 46">
    <defs>
        <clipPath id="clip-path">
            <path id="_Icon_Сolor" d="M9 18a1.009 1.009 0 0 1-.5-.132l-8-4.594a1 1 0 0 1-.5-.926.992.992 0 0 1 .606-.86l2.152-.916L.5 9.274a1 1 0 0 1 .108-1.787l2.152-.916L.5 5.274a1 1 0 0 1 .108-1.786l8-3.407a.994.994 0 0 1 .783 0l8 3.407a1 1 0 0 1 .109 1.786l-2.259 1.3 2.152.916a1 1 0 0 1 .107 1.784l-2.258 1.3 2.152.917a1 1 0 0 1 .106 1.786l-8 4.594A1.007 1.007 0 0 1 9 18zm-4.066-6.181l-1.694.722L9 15.847l5.76-3.307-1.694-.723-3.566 2.05a1 1 0 0 1-1 0l-3.566-2.048zm0-4L3.24 8.54 9 11.848l5.76-3.308-1.694-.722L9.5 9.868a1 1 0 0 1-1 0l-3.566-2.05zM9 2.087L3.24 4.541 9 7.847l5.76-3.306L9 2.087z" class="cls-1" data-name="🎨 Icon Сolor" transform="translate(3 3)"/>
        </clipPath>
        <clipPath id="clip-path-2">
            <path id="_Icon_Сolor-2" d="M4.935 12A.937.937 0 0 1 4 11.064v-.128A.938.938 0 0 1 4.935 10h12.129a.939.939 0 0 1 .936.936v.128a.938.938 0 0 1-.936.936zM0 11a1 1 0 1 1 1 1 1 1 0 0 1-1-1zm4.935-4A.938.938 0 0 1 4 6.064v-.127A.937.937 0 0 1 4.935 5h12.129a.938.938 0 0 1 .936.937v.128a.939.939 0 0 1-.936.935zM0 6a1 1 0 1 1 1 1 1 1 0 0 1-1-1zm4.935-4A.938.938 0 0 1 4 1.064V.936A.938.938 0 0 1 4.935 0h12.129A.939.939 0 0 1 18 .936v.128a.939.939 0 0 1-.936.936zM0 1a1 1 0 1 1 1 1 1 1 0 0 1-1-1z" class="cls-1" data-name="🎨 Icon Сolor"/>
        </clipPath>
        <style>
            .cls-1{fill:#fff}
        </style>
    </defs>
    <g id="Component_38_3" data-name="Component 38 – 3" transform="translate(0 -.5)">
        <g id="list" transform="translate(16 17.5)">
            <path id="_Icon_Сolor-3" d="M4.935 12A.937.937 0 0 1 4 11.064v-.128A.938.938 0 0 1 4.935 10h12.129a.939.939 0 0 1 .936.936v.128a.938.938 0 0 1-.936.936zM0 11a1 1 0 1 1 1 1 1 1 0 0 1-1-1zm4.935-4A.938.938 0 0 1 4 6.064v-.127A.937.937 0 0 1 4.935 5h12.129a.938.938 0 0 1 .936.937v.128a.939.939 0 0 1-.936.935zM0 6a1 1 0 1 1 1 1 1 1 0 0 1-1-1zm4.935-4A.938.938 0 0 1 4 1.064V.936A.938.938 0 0 1 4.935 0h12.129A.939.939 0 0 1 18 .936v.128a.939.939 0 0 1-.936.936zM0 1a1 1 0 1 1 1 1 1 1 0 0 1-1-1z" class="cls-1" data-name="🎨 Icon Сolor"/>
        </g>
    </g>
</svg>
