<svg xmlns="http://www.w3.org/2000/svg" xmlns:xlink="http://www.w3.org/1999/xlink" width="49" height="46"
     viewBox="0 0 49 46">
    <defs>
        <style>
            .a{fill:#fff;}.b{fill:none;}.c{fill:rgba(255,255,255,0.2);opacity:0;}.d{clip-path:url(#a);}.e{clip-path:url(#b);}
        </style>
        <clipPath id="a">
            <rect class="b" width="20.001" height="20"/>
        </clipPath>
        <clipPath id="b">
            <path class="a"
                  d="M6.616,20a2.219,2.219,0,0,1-1.356-.461L3.188,17.966A2.361,2.361,0,0,1,2.7,14.75a2.037,2.037,0,0,0,.231-1.857l-.055-.168a1.834,1.834,0,0,0-1.118-1.211l-.164-.057A2.345,2.345,0,0,1,.112,8.517L.928,5.922A2.224,2.224,0,0,1,2.052,4.588a2.145,2.145,0,0,1,.977-.235,2.177,2.177,0,0,1,.707.119,1.884,1.884,0,0,0,.607.1,1.947,1.947,0,0,0,1.17-.4l.129-.1a1.912,1.912,0,0,0,.734-1.51V2.326A2.313,2.313,0,0,1,8.658,0l2.551,0a2.245,2.245,0,0,1,1.6.671,2.341,2.341,0,0,1,.682,1.675l0,.279a1.782,1.782,0,0,0,.694,1.429l.107.081a1.764,1.764,0,0,0,1.051.352,1.7,1.7,0,0,0,.543-.088l.339-.113a2.227,2.227,0,0,1,1.732.132A2.306,2.306,0,0,1,19.107,5.8l.787,2.521a2.353,2.353,0,0,1-1.465,2.929l-.2.067a1.923,1.923,0,0,0-1.21,1.286,1.957,1.957,0,0,0,.259,1.652l.26.374a2.383,2.383,0,0,1-.508,3.229l-2.061,1.556a2.233,2.233,0,0,1-1.352.457,2.329,2.329,0,0,1-.359-.029,2.262,2.262,0,0,1-1.509-.958l-.118-.172a1.743,1.743,0,0,0-1.41-.779l-.087,0A1.769,1.769,0,0,0,8.7,18.7l-.231.328a2.261,2.261,0,0,1-1.51.944A2.356,2.356,0,0,1,6.616,20ZM3.03,6.354a.168.168,0,0,0-.076.019.236.236,0,0,0-.118.148l-.817,2.6a.357.357,0,0,0,.221.449l.164.056a3.838,3.838,0,0,1,2.377,2.5l.04.12a4.047,4.047,0,0,1-.461,3.623.367.367,0,0,0,.036.508l2.072,1.574A.258.258,0,0,0,6.623,18l.033,0a.27.27,0,0,0,.182-.12l.231-.328a3.8,3.8,0,0,1,2.971-1.614h.085a3.778,3.778,0,0,1,3.15,1.64l.118.171a.273.273,0,0,0,.182.12.174.174,0,0,0,.04,0,.24.24,0,0,0,.148-.053l2.061-1.555a.374.374,0,0,0,.068-.494l-.259-.375a3.967,3.967,0,0,1-.533-3.359,3.914,3.914,0,0,1,2.492-2.614l.2-.068a.349.349,0,0,0,.191-.437L17.2,6.393a.315.315,0,0,0-.155-.193.226.226,0,0,0-.111-.028.26.26,0,0,0-.076.013l-.339.113a3.726,3.726,0,0,1-1.175.19,3.777,3.777,0,0,1-2.256-.754l-.108-.081a3.79,3.79,0,0,1-1.489-3.035l0-.28a.353.353,0,0,0-.1-.254A.251.251,0,0,0,11.206,2L8.659,2a.313.313,0,0,0-.284.333v.242A3.929,3.929,0,0,1,6.852,5.669l-.129.1a3.957,3.957,0,0,1-2.38.8,3.876,3.876,0,0,1-1.255-.208A.2.2,0,0,0,3.03,6.354ZM10,13.5A3.5,3.5,0,1,1,13.5,10,3.5,3.5,0,0,1,10,13.5Zm0-5A1.5,1.5,0,1,0,11.5,10,1.5,1.5,0,0,0,10,8.5Z"
                  transform="translate(1.998 2)"/>
        </clipPath>
    </defs>
    <rect class="c" width="49" height="46" rx="3"/>
    <g class="d" transform="translate(14.998 12.5)">
        <path class="a"
              d="M6.616,20a2.219,2.219,0,0,1-1.356-.461L3.188,17.966A2.361,2.361,0,0,1,2.7,14.75a2.037,2.037,0,0,0,.231-1.857l-.055-.168a1.834,1.834,0,0,0-1.118-1.211l-.164-.057A2.345,2.345,0,0,1,.112,8.517L.928,5.922A2.224,2.224,0,0,1,2.052,4.588a2.145,2.145,0,0,1,.977-.235,2.177,2.177,0,0,1,.707.119,1.884,1.884,0,0,0,.607.1,1.947,1.947,0,0,0,1.17-.4l.129-.1a1.912,1.912,0,0,0,.734-1.51V2.326A2.313,2.313,0,0,1,8.658,0l2.551,0a2.245,2.245,0,0,1,1.6.671,2.341,2.341,0,0,1,.682,1.675l0,.279a1.782,1.782,0,0,0,.694,1.429l.107.081a1.764,1.764,0,0,0,1.051.352,1.7,1.7,0,0,0,.543-.088l.339-.113a2.227,2.227,0,0,1,1.732.132A2.306,2.306,0,0,1,19.107,5.8l.787,2.521a2.353,2.353,0,0,1-1.465,2.929l-.2.067a1.923,1.923,0,0,0-1.21,1.286,1.957,1.957,0,0,0,.259,1.652l.26.374a2.383,2.383,0,0,1-.508,3.229l-2.061,1.556a2.233,2.233,0,0,1-1.352.457,2.329,2.329,0,0,1-.359-.029,2.262,2.262,0,0,1-1.509-.958l-.118-.172a1.743,1.743,0,0,0-1.41-.779l-.087,0A1.769,1.769,0,0,0,8.7,18.7l-.231.328a2.261,2.261,0,0,1-1.51.944A2.356,2.356,0,0,1,6.616,20ZM3.03,6.354a.168.168,0,0,0-.076.019.236.236,0,0,0-.118.148l-.817,2.6a.357.357,0,0,0,.221.449l.164.056a3.838,3.838,0,0,1,2.377,2.5l.04.12a4.047,4.047,0,0,1-.461,3.623.367.367,0,0,0,.036.508l2.072,1.574A.258.258,0,0,0,6.623,18l.033,0a.27.27,0,0,0,.182-.12l.231-.328a3.8,3.8,0,0,1,2.971-1.614h.085a3.778,3.778,0,0,1,3.15,1.64l.118.171a.273.273,0,0,0,.182.12.174.174,0,0,0,.04,0,.24.24,0,0,0,.148-.053l2.061-1.555a.374.374,0,0,0,.068-.494l-.259-.375a3.967,3.967,0,0,1-.533-3.359,3.914,3.914,0,0,1,2.492-2.614l.2-.068a.349.349,0,0,0,.191-.437L17.2,6.393a.315.315,0,0,0-.155-.193.226.226,0,0,0-.111-.028.26.26,0,0,0-.076.013l-.339.113a3.726,3.726,0,0,1-1.175.19,3.777,3.777,0,0,1-2.256-.754l-.108-.081a3.79,3.79,0,0,1-1.489-3.035l0-.28a.353.353,0,0,0-.1-.254A.251.251,0,0,0,11.206,2L8.659,2a.313.313,0,0,0-.284.333v.242A3.929,3.929,0,0,1,6.852,5.669l-.129.1a3.957,3.957,0,0,1-2.38.8,3.876,3.876,0,0,1-1.255-.208A.2.2,0,0,0,3.03,6.354ZM10,13.5A3.5,3.5,0,1,1,13.5,10,3.5,3.5,0,0,1,10,13.5Zm0-5A1.5,1.5,0,1,0,11.5,10,1.5,1.5,0,0,0,10,8.5Z"
              transform="translate(0 0)"/>
    </g>
</svg>